<svg xmlns="http://www.w3.org/2000/svg" viewBox="0 0 117.76 51.58"><defs><style>.cls-1{fill:none;stroke:#30e3ca;stroke-linecap:round;stroke-linejoin:round;stroke-width:3.68px}</style></defs><g id="Layer_2" data-name="Layer 2"><g id="Objects"><path class="cls-1" d="M82.8 12.88c0-3.45-.4-8.28-3.68-11-.12-.1-1.38 4-9.2 5.52C59.85 9.34 57 14.72 57 14.72s-6.09-7.36-11-7.36c0 0 5.21 4.76 1.84 11m-5.42 17.01a8.42 8.42 0 01-1.94 8.79c-.11.12 8.34.52 12-5.9m30.52 4c-.35.92-2.77 5.64-5.76 7.48 0 0 .64-4.89-1-7.25m12.08-22.02c-1.19 2.17-5.32 14.38 3.76 20.18m10.96-14.89z"/><path class="cls-1" d="M11 27.6c0-4.9-9.2-18.4-9.2-18.4 8 1.69 18.4 16.56 18.4 16.56 13.34 0 31.59-12.88 60.72-12.88 18.25 0 35 12.88 35 12.88l-5.52 3.68 5.52 3.68c-5.06 0-16.71 9.2-35 9.2-29.13 0-47.38-12.88-60.72-12.88 0 0-10.43 14.88-18.4 16.56 0 0 9.2-13.49 9.2-18.4"/><path class="cls-1" d="M81 25.76c-2.18-.92-8-3.68-14.72 0-.1.06 6.48 3.95 9.2 5.52a5.35 5.35 0 005.52 0"/></g></g></svg>