<svg xmlns="http://www.w3.org/2000/svg" viewBox="0 0 117.76 36.8"><defs><style>.cls-1{fill:none;stroke:#30e3ca;stroke-linecap:round;stroke-linejoin:round;stroke-width:3.68px}</style></defs><g id="Layer_2" data-name="Layer 2"><g id="Objects"><path class="cls-1" d="M44.16 9.2s-8.62-7.36-11-7.36-11 2.3-11 3.68 3.68 7.36 3.68 7.36M27 20.79c-2.07 1.84-3.08 3.24-3.08 5s5.18 5.06 7.36 3.68 7.36-5.52 7.36-5.52m25.76 1.81c0 1.92-1.69 7.21-3.68 9.2a15.15 15.15 0 01-3.72-9.2m35-3.68l-7.36 11s-4.37-3-2.89-7.36a5.92 5.92 0 011-1.84c3.5-4.22 9.25-1.8 9.25-1.8z"/><path class="cls-1" d="M81 25.76H55.2c-7.36 0-24.69-5.52-29.44-5.52S5.37 25.76 3.68 25.76s-1.84-.31-1.84-1.84 7.36-5.83 7.36-7.36-7.36-5.83-7.36-7.36S2 7.36 3.68 7.36 21 12.88 25.76 12.88 47.84 7.36 55.2 7.36h33.12c5.3 0 20.72 5.22 25.9 6.87a2.45 2.45 0 011.7 2.33 2.45 2.45 0 01-1.7 2.33c-4.67 1.48-17.66 5.88-24.06 6.73m-71.93-4.1a5.25 5.25 0 010-9.91m73.39-3.87c-.54.77-4 5.69-1.69 13.66m11.27-6.68zM28.12 2.76l5 8.28"/></g></g></svg>