<svg xmlns="http://www.w3.org/2000/svg" viewBox="0 0 117.76 42.5"><defs><style>.cls-1{fill:none;stroke:#30e3ca;stroke-linecap:round;stroke-linejoin:round;stroke-width:3.68px}</style></defs><g id="Layer_2" data-name="Layer 2"><g id="Objects"><path class="cls-1" d="M103.05 20.43zm-75.39 9.2c16.55 0 19.31 5.1 31.26 5.51 33.56 1.15 57-12.87 57-12.87 0-1.07-27.12-12.87-33.1-12.87-15.32 0-41.37 9.19-55.16 9.19-9.65 0-18.54-5.51-25.74-5.51 0 0-.93 4.07 3.67 7.35 1.61 1.15 3.68 2.42 3.68 3.68"/><path class="cls-1" d="M27.66 29.63c-9.65 0-18.54 5.51-25.74 5.51 0 0-.93-4.06 3.67-7.35 1.61-1.15 3.68-2.42 3.68-3.68m10.84-5.52a20.92 20.92 0 000 11m35.13-16.51s-3.9-5.37-9.19-7.36C44.21 5 34.32 11.81 29.5 13.08l3.09 5.21M82.82 9.4c0-1.38-3.68-7.35-3.68-7.35S66.27-.6 58.92 13.08m-7.36 22.06c-2.91 2.15-6.5 5.64-11 3.68-3.94-1.68-5.56-2.3-5.56-7.35m49.66 1.83c-.34 1.27-3.45 5.29-9.19 7.36a15.32 15.32 0 01-1.84-5.52m9.19-12.87h-11c0 4.6 5.52 5.52 5.52 5.52m22.03-12.87s-9.19 4.36-9.19 7.35 5.51 7.36 5.51 7.36M86.5 11.24v3.68m-7.36-3.68v3.68m-7.35-2.68v3.67m-7.36-2.22v3.68m-7.35-2.45v3.67m-7.36-1.83v3.67m-7.35-1.84v3.68m-7.36-2.37v3.67m-7.35-3.14v3.68"/></g></g></svg>