<svg xmlns="http://www.w3.org/2000/svg" viewBox="0 0 117.76 69.92"><defs><style>.cls-1{fill:none;stroke:#30e3ca;stroke-linecap:round;stroke-linejoin:round;stroke-width:3.68px}</style></defs><g id="Layer_2" data-name="Layer 2"><g id="Objects"><path class="cls-1" d="M115.92 44.16c0 4.75-22.77 20.24-46 20.24-22.31 0-42.55-25.76-47.84-25.76S13.8 58.88 1.84 58.88C1.84 46.8 5.52 42 5.52 35v-1.88c0-7-3.68-11.85-3.68-23.92 12 0 15 20.24 20.24 20.24S55 14.72 77.28 14.72s35 16.56 36.8 22.08l-3.68 3.68s5.52-1.38 5.52 3.68zM99.37 56.63A16.56 16.56 0 01103 23.92"/><circle class="cls-1" cx="103.04" cy="36.8" r="1.84"/><path class="cls-1" d="M64.4 14.72c-4-5.37-10.62-12.88-12.88-12.88S37.46 13.69 36.8 16.56c-.46 2 1.84 5.52 1.84 5.52m11.04 38.64c-1.53 2.3-7.82 7.36-11 7.36-.15 0 1.69-4.29-3.68-9.2-4.8-4.39-10.89-12.73-11-18.4m60.64 11.04s-9.51-.61-14.72 3.68l9.2 3.68 7.36-3.68"/></g></g></svg>