<svg xmlns="http://www.w3.org/2000/svg" viewBox="0 0 117.76 64.34"><defs><style>.cls-1{fill:none;stroke:#30e3ca;stroke-linecap:round;stroke-linejoin:round;stroke-width:3.68px}</style></defs><g id="Layer_2" data-name="Layer 2"><g id="Objects"><path class="cls-1" d="M104.78 38.6a5.19 5.19 0 013.67-1.84s4.75.77 5.52 0 4-2.6 0-5.51-12-8.63-16.55-12.87c-5.2-4.9-14.7-5.51-23.89-5.51-8.89 0-10.11 3.83-20.22 5.51-9.37 1.56-14.9 8.32-22.06 11C19.92 33.7 6.74 29 1.84 34.93c0 0 11 5.36 11 7.35S11 55 11 55.15c0 1.45 7.83-4.75 12.87-12.87 2.76-4.44 8.88-6.74 16.54-3.68 4.87 1.95 9 4.88 16.54 7.36 15 4.9 33.86 3.48 40.44 1.83 6.16-1.53 17.19-5.79 16.61-9.19m-93.78-5.51c-.3 2-.61 5 3.68 7.35"/><path class="cls-1" d="M91.91 14.71c2.6-3.37 2-9.14 1.84-9.19-1.53-.62-4.75-1.08-9.19-3.68 0 0-12 2.45-20.22 3.68L57 16.55m-3.69 1.83S44.12 11 42.28 11c-2.91 0-11.49 4.29-12.87 11h12.87m5.51 20.28H38.6s1.08 11 1.84 11c5.21 0 12-5.06 12.87-7.35m29.41 3.7c0 3.37-5.82 12.87-11 12.87-.15 0-1.84-12.87-1.84-12.87M88.64 34.8s-10.4-3.55-15.11-3.55c0 0-.55 6 1.92 8.42s6 2.61 10.94 2.61m18.39-11.03"/><path class="cls-1" d="M95.59 25.85a19.27 19.27 0 00-7.36 5.4s0 15.29 13.41 15.29"/></g></g></svg>