<svg width="460" height="320" xmlns="http://www.w3.org/2000/svg"><path d="M116.231 31.42C164.302 1.588 211.83-1.194 243.372 1.785c31.085 2.94 52.772 11.714 57.51 13.77l.772.341c2.799-1.556 6.056-2.257 9.595-2.038 9.153.582 19.067 7.246 25.312 13.949 9.342-4.678 21.858-8.17 38.421-8.17 15.49 0 29.028 3.059 40.008 8.933 6.185-6.952 16.501-14.108 26.002-14.712 4.817-.297 9.134 1.097 12.457 4.062 15.444 13.773-.138 45.723-8.706 55.62.143 1.553.241 3.117.264 4.696.476 32.421-9.682 52.244-34.738 93.004-25.994 42.287-1.518 75.542 1.537 79.407l.265.328a7.48 7.48 0 011.02 7.944 7.456 7.456 0 01-6.462 4.293l-.279.005h-2.254c7.846 19.756.915 42.69-17.056 54.67a7.45 7.45 0 01-10.342-2.068 7.457 7.457 0 012.068-10.342c12.689-8.46 17.198-25.043 10.601-38.744l-.203-.414-1.55-3.102h-5.602a7.46 7.46 0 01-6.606-3.995l-11.318-23.564a9491.429 9491.429 0 00-11.864-24.545l-4.53 22.948a7197.423 7197.423 0 01-4.626 23.172 7.459 7.459 0 01-7.058 5.98l-.253.004h-37.471a7.458 7.458 0 01-7.02-4.942l-1.82-5.582c-2-6.068-5.51-16.495-9.368-26.905-17.233-46.518-36.485-51.1-53.043-49.442-9.321.931-29.743 6.186-39.548 8.804-.627 10.894-4.779 19.89-10.532 27.24l-.347.439-7.16 44.131a7.459 7.459 0 01-7.113 6.254l-.248.004v-.002h-55.816a7.46 7.46 0 01-6.356-3.556l-.515-.854c-3.606-6.051-24.108-41.705-33.565-85.113a212.853 212.853 0 01-3.405-20.198c-13.084 13.055-27.055 35.808-34.768 51.312a7.458 7.458 0 01-12.922.76C-6.195 173.523.625 144.278 2.866 134.668 14.53 84.651 45.219 59.171 68.911 46.602l1.296-.679C91.329 35.003 110.264 32.1 116.23 31.42zm39.515 216.884l3.257-19.971c-6.79 4.375-13.485 7.435-18.409 9.377l-.902.351 2.466 10.243h13.588l3.257-19.971-3.257 19.971zm85.647-231.723c-42.354-3.882-81.916 5.432-117.61 27.687l-1.133.711C82.147 70.604 67.909 112.73 80.334 170.188c7.621 35.245 23.435 65.91 29.678 77.131l.551.985h16.252l-3.214-13.356a7.458 7.458 0 015.005-8.857l.632-.189c4.424-1.362 44.431-14.565 43.387-45.01l-.047-.978a7.456 7.456 0 015.196-7.576l1.761-.491c6.771-1.855 33.813-9.123 46.016-10.342 30.667-3.06 52.44 15.717 68.513 59.103l.743 2.018c3.282 8.959 6.257 17.722 8.211 23.61l.684 2.068h5.891l.361-73.491a7.458 7.458 0 017.212-7.417l.283-.004a7.46 7.46 0 017.418 7.254l.003.241-.361 73.417h5.139l11.746-59.403-5.158-10.489c-4.202-8.514-8.113-16.35-11.336-22.657l-.635-1.241c-16.284-31.759-18.638-54.952-19.256-74.19l-.053-1.774-.016-.867a52.043 52.043 0 01.394-6.913c-6.748-9.397-15.515-28.404-12.455-42.377l-1.598-.621c-7.86-2.992-26.011-9.002-49.888-11.191zM374.98 34.556c-18.945 0-34.123 5.309-43.895 15.354-7.283 7.487-11.358 17.55-11.228 27.69l.011.543.069 2.263c.607 18 2.806 38.118 17.146 66.409l1.738 3.404c10.679 20.978 28.175 57.102 39.364 80.34l8.524 17.745h6.161a86.473 86.473 0 01-6.325-16.22c-4.418-15.957-6.093-40.821 11.015-68.652l2.252-3.674c23.743-38.885 30.667-54.916 30.279-81.3-.312-21.223-14.953-43.902-55.111-43.902zM89.264 53.681a125.24 125.24 0 00-13.881 6.375c-30.19 16.202-49.701 42.445-57.993 78.002l-.274 1.202c-2.595 11.65-4.392 28.023 3.792 46.573 8.497-14.986 23.841-39.099 40.262-50.706-.463-32.641 9.014-60.12 28.094-81.446zm266.492 74.382c1.969 0 3.888.796 5.28 2.188a7.542 7.542 0 012.188 5.27 7.51 7.51 0 01-2.188 5.271 7.508 7.508 0 01-5.28 2.187 7.502 7.502 0 01-5.27-2.187 7.5 7.5 0 01-2.178-5.271c0-1.959.795-3.887 2.178-5.27a7.501 7.501 0 015.27-2.188zm39.149 0c1.969 0 3.889.796 5.27 2.188a7.483 7.483 0 012.188 5.27 7.468 7.468 0 01-7.458 7.458 7.468 7.468 0 01-7.458-7.458c0-1.959.795-3.887 2.188-5.27a7.485 7.485 0 015.27-2.188zm49.939-100.492c-.489-.436-1.277-.926-3.034-.808-4.864.309-11.596 4.698-16.042 9.206a54.467 54.467 0 013.126 2.908c4.991 5.07 8.903 11.022 11.627 17.546l.535-1.067c5.005-10.192 8.549-23.54 3.788-27.785zm-134.417-.808c-1.768-.117-2.546.373-3.034.806-4.513 4.026-1.561 16.231 3.022 26.174a54.884 54.884 0 019.978-14.234 56.601 56.601 0 015.023-4.567c-4.299-4.024-10.193-7.705-14.65-8.151l-.339-.028z"/></svg>